<?xml version="1.0" standalone="no"?>
<!DOCTYPE svg PUBLIC "-//W3C//DTD SVG 20010904//EN"
 "http://www.w3.org/TR/2001/REC-SVG-20010904/DTD/svg10.dtd">
<svg version="1.0" xmlns="http://www.w3.org/2000/svg"
 width="512.000000pt" height="512.000000pt" viewBox="0 0 512.000000 512.000000"
 preserveAspectRatio="xMidYMid meet">

<g transform="translate(0.000000,512.000000) scale(0.100000,-0.100000)"
fill="currentColor" stroke="none">
<path d="M2170 4818 c-76 -37 -171 -141 -218 -238 -66 -138 -95 -257 -115
-465 l-12 -127 -38 55 c-165 239 -352 222 -476 -43 -51 -109 -71 -208 -76
-370 l-4 -145 -53 -2 c-355 -16 -588 -46 -749 -99 -68 -22 -177 -80 -168 -88
2 -2 45 5 94 15 167 34 358 51 626 56 l265 6 13 -99 c24 -185 100 -449 191
-665 l32 -75 -85 -141 c-157 -262 -266 -500 -324 -708 -24 -88 -28 -117 -28
-246 l0 -146 35 -68 c31 -60 42 -72 90 -97 81 -42 153 -58 260 -58 157 0 286
35 487 130 l122 58 -23 -36 c-46 -73 -69 -157 -63 -222 16 -152 101 -209 292
-197 108 6 275 63 412 139 101 56 108 59 121 41 7 -10 66 -99 131 -198 137
-207 201 -289 308 -397 71 -72 174 -141 188 -126 4 4 -17 35 -47 70 -78 92
-165 208 -248 333 -87 129 -240 385 -240 401 0 6 37 39 83 74 108 83 365 344
447 454 l65 87 147 -5 c366 -13 745 36 957 123 285 118 369 335 216 565 -79
120 -259 286 -422 391 -35 22 -63 43 -63 46 0 3 30 9 68 12 147 14 248 65 277
140 23 61 9 148 -37 226 -66 112 -242 268 -424 377 -17 10 -12 24 65 190 106
227 183 417 216 528 24 86 34 199 17 210 -5 3 -17 -21 -27 -52 -28 -90 -110
-276 -182 -412 -81 -154 -221 -390 -231 -390 -4 0 -48 16 -97 36 -120 47 -358
107 -530 134 -77 11 -154 23 -171 26 -28 4 -38 17 -100 126 -203 359 -462 685
-643 807 -120 82 -241 103 -331 59z m404 -528 c97 -47 229 -181 361 -365 l57
-80 -168 -7 c-260 -10 -469 -59 -610 -144 l-57 -34 7 82 c4 46 16 123 26 173
34 156 141 338 225 380 42 21 111 19 159 -5z m-826 -397 c65 -48 81 -87 97
-229 8 -71 15 -142 15 -159 l0 -30 -177 3 c-98 2 -181 7 -186 11 -11 11 12
195 34 267 25 79 74 145 119 160 40 13 53 10 98 -23z m1413 -232 c201 -36 582
-157 722 -228 l28 -14 -87 -127 c-48 -70 -89 -129 -91 -132 -3 -3 -19 13 -36
35 -87 110 -203 212 -318 278 -41 24 -37 18 50 -71 66 -66 113 -125 148 -186
29 -49 51 -91 49 -94 -3 -2 -74 19 -158 47 -351 116 -740 207 -1087 256 -92
12 -116 13 -123 3 -4 -7 -8 -51 -8 -98 l0 -85 148 -29 c424 -82 834 -216 1170
-382 124 -62 153 -80 158 -101 4 -13 4 -70 2 -126 -8 -172 -81 -349 -243 -592
-112 -167 -193 -265 -364 -435 -140 -140 -331 -300 -357 -300 -8 0 -104 203
-141 296 -2 7 26 13 84 17 148 11 270 51 386 127 36 24 65 45 63 47 -2 2 -28
-8 -58 -22 -80 -36 -197 -64 -324 -77 -145 -14 -159 -9 -102 38 207 172 498
466 732 740 161 188 211 253 200 263 -5 4 -39 29 -76 54 l-68 46 -242 -242
c-341 -340 -573 -541 -827 -712 -143 -97 -123 -98 -259 5 -208 156 -376 425
-503 803 -62 186 -129 519 -129 645 0 37 3 42 23 42 31 0 290 -29 294 -33 1
-2 -13 -32 -32 -68 -76 -141 -111 -321 -85 -444 l13 -60 18 99 c10 54 32 140
49 190 56 162 120 271 120 205 0 -45 80 -417 125 -577 56 -205 131 -425 205
-610 32 -79 60 -146 63 -148 5 -5 113 46 153 73 l22 14 -34 107 c-163 510
-274 1057 -274 1348 l0 82 88 45 c188 96 298 117 587 113 158 -3 238 -9 326
-25z m1052 -446 c65 -65 107 -145 107 -202 0 -54 -37 -87 -116 -103 -70 -15
-74 -14 -219 54 -66 31 -124 57 -130 59 -5 2 29 66 77 143 47 76 91 149 97
162 l12 22 60 -41 c33 -22 83 -64 112 -94z m-237 -637 c190 -151 305 -308 304
-416 -1 -37 -31 -101 -66 -136 -58 -58 -223 -116 -384 -135 -149 -18 -232 -23
-228 -14 2 4 38 78 80 163 106 214 150 358 173 562 8 69 4 69 121 -24z m-2204
-528 c101 -135 228 -258 310 -300 38 -19 68 -38 68 -41 0 -3 -31 -20 -68 -37
-198 -92 -370 -120 -527 -87 -80 17 -113 37 -137 86 -47 91 2 321 128 598 l34
74 61 -99 c33 -54 92 -142 131 -194z m778 -681 c73 -127 90 -163 79 -170 -40
-25 -162 -69 -223 -80 -125 -21 -216 4 -242 67 -13 32 -13 42 1 92 10 34 27
65 43 79 31 27 234 171 243 172 3 1 48 -71 99 -160z"/>
</g>
</svg>
